<svg width="720" height="460" viewBox="0 0 720 460" fill="none" xmlns="http://www.w3.org/2000/svg" role="img" aria-labelledby="title desc">
  <title id="title">GetThe marketplace system map</title>
  <desc id="desc">Three domain fronts route into one AI appraisal, marketplace search, and escrow workflow.</desc>
  <rect width="720" height="460" rx="8" fill="#FBFAF7"/>
  <path d="M88 94H258V174H88V94Z" fill="#FFFFFF" stroke="#D9DED8" stroke-width="2"/>
  <path d="M88 202H258V282H88V202Z" fill="#FFFFFF" stroke="#D9DED8" stroke-width="2"/>
  <path d="M88 310H258V390H88V310Z" fill="#FFFFFF" stroke="#D9DED8" stroke-width="2"/>
  <path d="M462 84H632V178H462V84Z" fill="#FFFFFF" stroke="#D9DED8" stroke-width="2"/>
  <path d="M462 210H632V304H462V210Z" fill="#FFFFFF" stroke="#D9DED8" stroke-width="2"/>
  <path d="M462 336H632V414H462V336Z" fill="#FFFFFF" stroke="#D9DED8" stroke-width="2"/>
  <path d="M306 150H414V310H306V150Z" fill="#17211F" stroke="#17211F" stroke-width="2"/>
  <circle cx="173" cy="134" r="24" fill="#0F8F6F"/>
  <circle cx="173" cy="242" r="24" fill="#3178C6"/>
  <circle cx="173" cy="350" r="24" fill="#C68421"/>
  <circle cx="360" cy="198" r="22" fill="#FBFAF7"/>
  <circle cx="360" cy="262" r="22" fill="#FBFAF7"/>
  <circle cx="547" cy="131" r="22" fill="#0F8F6F"/>
  <circle cx="547" cy="257" r="22" fill="#3178C6"/>
  <circle cx="547" cy="375" r="22" fill="#C68421"/>
  <path d="M258 134C282 134 282 198 306 198" stroke="#0F8F6F" stroke-width="4" stroke-linecap="round"/>
  <path d="M258 242C282 242 282 230 306 230" stroke="#3178C6" stroke-width="4" stroke-linecap="round"/>
  <path d="M258 350C282 350 282 262 306 262" stroke="#C68421" stroke-width="4" stroke-linecap="round"/>
  <path d="M414 198C438 198 438 131 462 131" stroke="#0F8F6F" stroke-width="4" stroke-linecap="round"/>
  <path d="M414 230C438 230 438 257 462 257" stroke="#3178C6" stroke-width="4" stroke-linecap="round"/>
  <path d="M414 262C438 262 438 375 462 375" stroke="#C68421" stroke-width="4" stroke-linecap="round"/>
  <text x="173" y="126" text-anchor="middle" font-family="Inter, Arial" font-size="16" font-weight="700" fill="#17211F">.com</text>
  <text x="173" y="145" text-anchor="middle" font-family="Inter, Arial" font-size="11" fill="#17211F">getthe.com</text>
  <text x="173" y="234" text-anchor="middle" font-family="Inter, Arial" font-size="16" font-weight="700" fill="#17211F">AI</text>
  <text x="173" y="253" text-anchor="middle" font-family="Inter, Arial" font-size="11" fill="#17211F">getthe.ai</text>
  <text x="173" y="342" text-anchor="middle" font-family="Inter, Arial" font-size="16" font-weight="700" fill="#17211F">.org</text>
  <text x="173" y="361" text-anchor="middle" font-family="Inter, Arial" font-size="11" fill="#17211F">getthe.org</text>
  <text x="360" y="194" text-anchor="middle" font-family="Inter, Arial" font-size="12" font-weight="700" fill="#17211F">AI</text>
  <text x="360" y="265" text-anchor="middle" font-family="Inter, Arial" font-size="12" font-weight="700" fill="#17211F">DB</text>
  <text x="360" y="336" text-anchor="middle" font-family="Inter, Arial" font-size="16" font-weight="700" fill="#17211F">Shared marketplace</text>
  <text x="360" y="356" text-anchor="middle" font-family="Inter, Arial" font-size="12" fill="#64706C">One account, search index, inventory, audit trail</text>
  <text x="547" y="126" text-anchor="middle" font-family="Inter, Arial" font-size="14" font-weight="700" fill="#17211F">Search</text>
  <text x="547" y="147" text-anchor="middle" font-family="Inter, Arial" font-size="11" fill="#17211F">Faceted discovery</text>
  <text x="547" y="252" text-anchor="middle" font-family="Inter, Arial" font-size="14" font-weight="700" fill="#17211F">Offers</text>
  <text x="547" y="273" text-anchor="middle" font-family="Inter, Arial" font-size="11" fill="#17211F">Tiered verification</text>
  <text x="547" y="370" text-anchor="middle" font-family="Inter, Arial" font-size="14" font-weight="700" fill="#17211F">Escrow</text>
  <text x="547" y="391" text-anchor="middle" font-family="Inter, Arial" font-size="11" fill="#17211F">No platform-held funds</text>
</svg>
